<svg version="1" xmlns="http://www.w3.org/2000/svg" width="933.333" height="933.333" viewBox="0 0 700.000000 700.000000"><path d="M336 89c-28 10.1-70.9 25.4-80 28.5-5.2 1.8-14.7 5.2-21 7.5-6.3 2.3-17.3 6.2-24.5 8.6-7.1 2.5-13.9 4.9-15 5.4-1.1.5-9.2 3.5-18 6.6-8.8 3.1-21.6 7.6-28.5 10.1-11.2 4-22.6 8.1-48.5 17.3-11.4 4-11.4 4-11 5.8.1.9.6 4.6 1 8.2.4 3.6.9 7.8 1.1 9.5.2 1.6.6 5.2.9 8 .3 2.7.8 6.6 1 8.5.2 1.9.7 6 1 9 .3 3 .8 7.1 1 9 .5 3.6 1.1 9.2 2 17 .3 2.5.9 8.5 1.5 13.5.6 4.9 1.3 11 1.6 13.5.3 2.5.7 6.1.9 8 .5 3.7 1.1 8.5 2 16.5.8 7.4 1.5 13.1 2.5 21.5.6 4.1 1.2 10.2 1.5 13.4.3 3.3.7 6.7.9 7.5.3.9.7 4.8 1 8.6.4 3.9.8 8 1 9 .2 1.1.7 5.1 1 9 .4 3.8.9 8.1 1.1 9.5.2 1.4.9 7 1.5 12.5s1.3 11.8 1.6 14c.2 2.2.7 6 .9 8.5.3 2.5.8 5.8 1 7.5.2 1.6.7 6.3 1.1 10.4.3 4.1.8 8.1.9 9 .2.9.6 4.1 1 7.1.3 3 .8 7.1 1.1 9 .3 1.9.7 6 1 9 .2 3 .6 7.1.9 9 .3 1.9.7 5.7 1 8.5.3 2.7.7 6.1 1 7.5.2 1.4.7 5.4 1 8.9.4 3.5.8 7.8 1 9.5.3 1.7.7 5.3 1 8.1.3 2.7.7 5 .8 5.1.7.5 17.5 9.8 24.2 13.4 4.4 2.4 8.5 4.7 9.1 5.1.6.5 4 2.4 7.5 4.3 3.5 1.8 22.2 12.1 41.4 22.8 19.3 10.7 38.1 21.1 41.8 23.2 9.8 5.3 13.8 7.6 17.2 9.6 1.7.9 5.5 3.1 8.5 4.7 3 1.7 7.5 4.1 10 5.5 2.5 1.4 17.2 9.6 32.8 18.2l28.3 15.7 6.2-3.4c3.4-1.9 8.2-4.5 10.7-5.9 2.5-1.4 21.8-12.1 43-23.8 21.2-11.7 43.9-24.3 50.5-28 6.6-3.7 14-7.8 16.5-9.2 37.6-20.7 92.7-51.2 93.3-51.8.4-.3 1.4-6 2.2-12.6 1.5-12.2 1.7-14 3.5-30.4 1-8.9 1.4-12.3 2.5-21 .2-1.9.7-6 1-9 .3-3 .8-7.1 1-9 .2-1.9.7-6 1-9 .4-3 .8-6.6 1-8 .2-1.4.6-5.2 1-8.5.3-3.3 1-9.6 1.5-14 .6-4.4 1.2-10.3 1.5-13 .3-2.8.8-6.1 1-7.5.2-1.4.7-5.7 1.1-9.5.3-3.9.8-7.7.9-8.5.2-.8.6-4.7 1-8.5.4-3.9.8-8.1 1-9.5.2-1.4.6-4.3.9-6.5.3-2.2.8-6.7 1.1-10 .3-3.3.7-7.1 1-8.5.2-1.4.7-5.2 1-8.5.3-3.3 1-9.6 1.6-14 1-8.4 1.4-11.6 2.4-20.5.3-3 .8-7.1 1-9 .3-1.9 1.8-15.7 3.5-30.5 1.7-14.9 3.2-28.4 3.5-30 .8-6.8 2.9-26.1 3-27.9 0-1.4-1.7-2.4-7-4.3-3.8-1.4-12.4-4.5-19-6.9-18.2-6.5-169.1-60.3-176.5-62.9-3.6-1.2-18-6.4-32.1-11.4-14-5-25.7-9.1-26-9-.2 0-6.5 2.2-13.9 4.9z"/></svg>